<svg width="15" height="24" viewBox="0 0 15 24" fill="none" xmlns="http://www.w3.org/2000/svg">
<path d="M1.26274 0.862962C0.934668 1.19114 0.750366 1.63617 0.750366 2.10021C0.750366 2.56425 0.934668 3.00929 1.26274 3.33746L9.92524 12L1.26274 20.6625C0.943966 20.9925 0.767575 21.4346 0.771562 21.8934C0.77555 22.3523 0.959596 22.7912 1.28406 23.1156C1.60852 23.4401 2.04745 23.6242 2.50629 23.6281C2.96513 23.6321 3.40719 23.4557 3.73724 23.137L13.637 13.2372C13.9651 12.909 14.1494 12.464 14.1494 12C14.1494 11.5359 13.9651 11.0909 13.637 10.7627L3.73724 0.862962C3.40907 0.534888 2.96403 0.350586 2.49999 0.350586C2.03596 0.350586 1.59092 0.534888 1.26274 0.862962Z" fill="white"/>
</svg>
